{"title":"Mr.Nobody.2009.Extended.CUSTOM.SWESUB.DVDRip.XviD-Zen_Bud","uid":5768911,"size":1480536064,"categoryP":"video","categoryS":"movies","magnet":"?xt=urn:btih:fbd009d65bc14e68cc2f6e5c036e09572a6db34c&amp;dn=Mr.Nobody.2009.Extended.CUSTOM.SWESUB.DVDRip.XviD-Zen_Bud&amp;tr=udp%3A%2F%2Ftracker.openbittorrent.com%3A80&amp;tr=udp%3A%2F%2Fopen.demonii.com%3A1337&amp;tr=udp%3A%2F%2Ftracker.coppersurfer.tk%3A6969&amp;tr=udp%3A%2F%2Fexodus.desync.com%3A6969","seeders":0,"leechers":0,"uploader":"Zen_Bud","files":-1,"time":1282032898,"description":"General\n\nComplete name                    : Mr.Nobody.2009.avi\nFormat                           : AVI\nFile size                        : 1.38 GiB\nDuration                         : 2h 35mn\nOverall bit rate                 : 1 269 Kbps\n\nVideo\n\nFormat                           : MPEG-4 Visual\nCodec ID/Hint                    : XviD\nDuration                         : 2h 35mn\nBit rate                         : 1 144 Kbps\nWidth                            : 720 pixels\nHeight                           : 364 pixels\nDisplay aspect ratio             : 2.35:1\nStream size                      : 1.24 GiB (90%)\nWriting library                  : XviD 1.1.2 (UTC 2006-11-01)\n\nAudio\n\nFormat                           : MPEG Audio\nCodec ID/Hint                    : MP3\nDuration                         : 2h 35mn\nBit rate                         : 112 Kbps\nChannel(s)                       : 2 channels\nSampling rate                    : 48.0 KHz\nStream size                      : 125 MiB (9%)\nWriting library                  : LAME3.98\n\n\n\n*************Text:  robin8, Vic, Toya and Simontax&lt;-&gt;THX :)****************","torrent":{"xt":"urn:btih:fbd009d65bc14e68cc2f6e5c036e09572a6db34c","amp;dn":"Mr.Nobody.2009.Extended.CUSTOM.SWESUB.DVDRip.XviD-Zen_Bud","amp;tr":["udp%3A%2F%2Ftracker.openbittorrent.com%3A80","udp%3A%2F%2Fopen.demonii.com%3A1337","udp%3A%2F%2Ftracker.coppersurfer.tk%3A6969","udp%3A%2F%2Fexodus.desync.com%3A6969"],"infoHash":"fbd009d65bc14e68cc2f6e5c036e09572a6db34c","infoHashBuffer":{"type":"Buffer","data":[251,208,9,214,91,193,78,104,204,47,110,92,3,110,9,87,42,109,179,76]},"announce":[],"urlList":[]}}